# xmcd
#
# Track frame offsets:
#	150
#	19977
#	43328
#	59326
#	75615
#	88901
#	108421
#	123360
#
# Disc length: 1878 seconds
#
# Revision: 0
# Processed by: cddbd v1.5.2PL0 Copyright (c) Steve Scherf et al.
# Submitted via: EasyCDDAExtractor 11.1.0.1
#
DISCID=69075408
DTITLE=The Paddock - Yesterday's Songs
DYEAR=2016
DGENRE=Country
TTITLE0=Walkabout
TTITLE1=Charlie
TTITLE2=Warmth Of Home
TTITLE3=Yesterday's Songs
TTITLE4=Waters Of The Murray
TTITLE5=Thunder On The Mountain
TTITLE6=Busy Man
TTITLE7=Catch Me Crying
EXTD=
EXTT0=
EXTT1=
EXTT2=
EXTT3=
EXTT4=
EXTT5=
EXTT6=
EXTT7=
PLAYORDER=
